<svg width="28" height="28" viewBox="0 0 28 28" fill="none" xmlns="http://www.w3.org/2000/svg">
<path opacity="0.24" d="M14 28C21.732 28 28 21.732 28 14C28 6.26801 21.732 0 14 0C6.26801 0 0 6.26801 0 14C0 21.732 6.26801 28 14 28Z" fill="black"/>
<path fill-rule="evenodd" clip-rule="evenodd" d="M16.0017 8.66611L16.5363 9.20513C16.7121 9.39201 16.8 9.61012 16.8 9.8592C16.8 10.1133 16.7121 10.329 16.5363 10.5063L13.0719 14L16.5363 17.4937C16.712 17.671 16.8 17.8867 16.8 18.1407C16.8 18.3899 16.712 18.608 16.5363 18.7949L16.0016 19.3268C15.8211 19.5089 15.6048 19.6 15.3529 19.6C15.0963 19.6 14.8825 19.5089 14.7114 19.3268L10.0709 14.647C9.89034 14.4744 9.80005 14.2589 9.80005 14C9.80005 13.746 9.89034 13.5279 10.0709 13.3459L14.7114 8.66611C14.8873 8.48876 15.1011 8.4 15.3529 8.4C15.6001 8.4 15.8163 8.48876 16.0017 8.66611Z" fill="white"/>
</svg>
