<svg width="28" height="28" viewBox="0 0 28 28" fill="none" xmlns="http://www.w3.org/2000/svg">
<path opacity="0.24" d="M14 28C21.732 28 28 21.732 28 14C28 6.26801 21.732 0 14 0C6.26801 0 0 6.26801 0 14C0 21.732 6.26801 28 14 28Z" fill="black"/>
<path fill-rule="evenodd" clip-rule="evenodd" d="M11.9983 8.66611L11.4637 9.20513C11.2879 9.39201 11.2 9.61012 11.2 9.8592C11.2 10.1133 11.2879 10.329 11.4637 10.5063L14.9281 14L11.4637 17.4937C11.288 17.671 11.2 17.8867 11.2 18.1407C11.2 18.3899 11.288 18.608 11.4637 18.7949L11.9984 19.3268C12.1789 19.5089 12.3952 19.6 12.6471 19.6C12.9037 19.6 13.1175 19.5089 13.2886 19.3268L17.9291 14.647C18.1097 14.4744 18.2 14.2589 18.2 14C18.2 13.746 18.1097 13.5279 17.9291 13.3459L13.2886 8.66611C13.1127 8.48876 12.8989 8.4 12.6471 8.4C12.3999 8.4 12.1837 8.48876 11.9983 8.66611Z" fill="white"/>
</svg>
